#!OML:ASF I:\Actors\actors\Patient Classification 1\Patient 1\Session 1\Subject1.ASF
:FULLY-SPECIFIED
:DEGREES
429
root 0.522271 17.5123 9.25383 6.50342 -1.63326 -9.3301
lowerback -1.30288 0.909168 5.66941
upperback -10.2854 1.59931 1.53519
thorax -10.1094 0.372215 -1.63624
lowerneck 2.25126 -2.17756 -2.1176
upperneck -12.0344 -1.69521 12.4943
head -3.79252 -1.33877 4.24976
rclavicle 4.17448e-015 -3.45885e-014
rhumerus 24.6359 43.2749 -60.9159
rradius 133.069
rwrist 36.3045
rhand -14.8708 -47.4098
rfingers 7.12502
rthumb 11.2894 -77.0859
lclavicle 4.17448e-015 -3.45885e-014
lhumerus 7.59659 -51.0047 80.1621
lradius 133.206
lwrist 33.3443
lhand -52.2255 -24.8356
lfingers 7.12502
lthumb -24.7236 3.58682
rfemur -4.6483 20.4192 27.2729
rtibia 8.48816
rfoot -12.5912 -19.4616
rtoes 0.304437
lfemur 10.2201 -44.3897 -14.8038
ltibia -4.686
lfoot -21.411 51.9598
ltoes 7.80728
430
root 0.521153 17.5134 9.25499 6.48706 -1.59755 -9.32008
lowerback -1.28036 0.869489 5.63835
upperback -10.2966 1.54926 1.56653
thorax -10.1404 0.351066 -1.58232
lowerneck 2.24899 -2.16221 -2.14289
upperneck -11.8745 -1.69457 12.4705
head -3.74426 -1.33107 4.2431
rclavicle 1.09332e-014 1.98785e-015
rhumerus 24.994 43.0654 -60.1394
rradius 132.842
rwrist 36.8976
rhand -14.4159 -48.2315
rfingers 7.12502
rthumb 11.728 -77.8832
lclavicle 1.09332e-014 1.98785e-015
lhumerus 7.44518 -51.2128 80.0534
lradius 132.557
lwrist 23.9901
lhand -52.4355 -27.3593
lfingers 7.12502
lthumb -24.9249 1.03539
rfemur -4.60828 20.4535 27.2781
rtibia 8.45701
rfoot -12.5364 -19.5146
rtoes 0.275755
lfemur 10.1594 -44.2161 -14.7429
ltibia -4.68275
lfoot -21.0749 51.8174
ltoes 7.35253
431
root 0.520558 17.5137 9.25492 6.47024 -1.57732 -9.31735
lowerback -1.23155 0.762987 5.61658
upperback -10.3102 1.41691 1.66706
thorax -10.1975 0.291629 -1.45385
lowerneck 2.22666 -2.04406 -2.37871
upperneck -11.6205 -1.56398 12.5785
head -3.66959 -1.2533 4.30673
rclavicle 2.08724e-015 -1.23246e-014
rhumerus 25.5694 43.1196 -59.1366
rradius 132.756
rwrist 37.6839
rhand -13.6418 -49.4583
rfingers 7.12502
rthumb 12.4745 -79.066
lclavicle 2.08724e-015 -1.23246e-014
lhumerus 7.00876 -50.9856 80.0906
lradius 131.979
lwrist 14.1911
lhand -52.7041 -27.4512
lfingers 7.12502
lthumb -25.1823 0.907505
rfemur -4.58234 20.4625 27.2879
rtibia 8.44259
rfoot -12.5085 -19.5559
rtoes 0.0777966
lfemur 10.1371 -44.136 -14.7125
ltibia -4.68236
lfoot -20.9549 51.7381
ltoes 7.25576
432
root 0.519865 17.5134 9.255 6.44758 -1.57585 -9.29313
lowerback -1.18742 0.765721 5.609
upperback -10.3259 1.42149 1.63034
thorax -10.2406 0.291187 -1.48982
lowerneck 2.25224 -2.0589 -2.33929
upperneck -11.4682 -1.59645 12.5793
head -3.62649 -1.26679 4.29856
rclavicle -7.95139e-015 2.5842e-014
rhumerus 25.8131 43.0406 -58.3537
rradius 132.798
rwrist 38.2051
rhand -12.7014 -50.7317
rfingers 7.12502
rthumb 13.381 -80.282
lclavicle -7.95139e-015 2.5842e-014
lhumerus 6.87586 -50.8265 79.9497
lradius 131.52
lwrist 6.07607
lhand -52.534 -26.711
lfingers 7.12502
lthumb -25.0193 1.67055
rfemur -4.56271 20.4399 27.2725
rtibia 8.45831
rfoot -12.5346 -19.5617
rtoes -0.0549108
lfemur 10.1747 -44.1555 -14.7697
ltibia -4.66936
lfoot -21.1182 51.7088
ltoes 7.4716
433
root 0.517042 17.5135 9.25544 6.44354 -1.61751 -9.28981
lowerback -1.18654 0.806759 5.59393
upperback -10.3193 1.47261 1.58995
thorax -10.2289 0.315792 -1.52848
lowerneck 2.23234 -2.12721 -2.22956
upperneck -11.3798 -1.69774 12.5149
head -3.59131 -1.31461 4.261
rclavicle -1.35174e-014 2.34566e-014
rhumerus 25.9976 42.7328 -57.8952
rradius 132.743
rwrist 38.1065
rhand -11.8692 -51.3672
rfingers 7.12502
rthumb 14.183 -80.863
lclavicle -1.35174e-014 2.34566e-014
lhumerus 7.03216 -50.6476 79.6351
lradius 131.171
lwrist 0.294361
lhand -52.1085 -25.8432
lfingers 7.12502
lthumb -24.6115 2.59457
rfemur -4.5764 20.4827 27.2799
rtibia 8.50341
rfoot -12.5616 -19.5611
rtoes 0.00107887
lfemur 10.2321 -44.2539 -14.8148
ltibia -4.67781
lfoot -21.3927 51.7945
ltoes 7.71942
